<svg width="100%" height="100%" id="svg" viewBox="0 0 1440 400" xmlns="http://www.w3.org/2000/svg" class="transition duration-300 ease-in-out delay-150"><defs><linearGradient id="gradient" x1="50%" y1="0%" x2="50%" y2="100%"><stop offset="5%" stop-color="#ffffff"></stop><stop offset="95%" stop-color="#ffffff"></stop></linearGradient></defs><path d="M 0,400 C 0,400 0,80 0,80 C 30.667196292409507,93.87296782881346 61.334392584819014,107.74593565762692 85,109 C 108.66560741518099,110.25406434237308 125.32962595313347,98.88922519830575 142,86 C 158.67037404686653,73.11077480169425 175.34710360264722,58.69716354915003 203,57 C 230.65289639735278,55.30283645084997 269.2819596362777,66.32212060509413 300,73 C 330.7180403637223,79.67787939490587 353.5250578522421,82.01435403047343 373,89 C 392.4749421477579,95.98564596952657 408.6178089547539,107.62046327301215 430,108 C 451.3821910452461,108.37953672698785 478.0037063287423,97.50379287747795 504,99 C 529.9962936712577,100.49620712252205 555.3673657302775,114.36436521707604 578,107 C 600.6326342697225,99.63563478292396 620.5268307501476,71.03874625421786 643,66 C 665.4731692498524,60.961253745782145 690.5253112691321,79.48064976605251 719,79 C 747.4746887308679,78.51935023394749 779.3719241733238,59.038654681572126 799,58 C 818.6280758266762,56.961345318427874 825.9869920375725,74.36473150765896 851,75 C 876.0130079624275,75.63526849234104 918.6801076763863,59.50241928779209 948,58 C 977.3198923236137,56.49758071220791 993.2925772568824,69.62559134117272 1016,81 C 1038.7074227431176,92.37440865882728 1068.1495832960834,101.99521534751699 1089,105 C 1109.8504167039166,108.00478465248301 1122.1090895587843,104.39354726875925 1142,95 C 1161.8909104412157,85.60645273124075 1189.4140584687793,70.43059557744597 1220,76 C 1250.5859415312207,81.56940442255403 1284.234676566098,107.88407042145685 1306,105 C 1327.765323433902,102.11592957854315 1337.647235266829,70.03312273672661 1358,61 C 1378.352764733171,51.96687726327339 1409.1763823665856,65.98343863163669 1440,80 C 1440,80 1440,400 1440,400 Z" stroke="none" stroke-width="0" fill="url(#gradient)" fill-opacity="0.265" class="transition-all duration-300 ease-in-out delay-150 path-0"></path><defs><linearGradient id="gradient" x1="50%" y1="0%" x2="50%" y2="100%"><stop offset="5%" stop-color="#ffffff"></stop><stop offset="95%" stop-color="#ffffff"></stop></linearGradient></defs><path d="M 0,400 C 0,400 0,160 0,160 C 27.37365180719761,153.14665389862367 54.74730361439522,146.29330779724734 78,140 C 101.25269638560478,133.70669220275266 120.38443734961675,127.97342270963426 141,137 C 161.61556265038325,146.02657729036574 183.71494698713786,169.8130013642156 213,170 C 242.28505301286214,170.1869986357844 278.7557747018318,146.77457183350324 300,145 C 321.2442252981682,143.22542816649676 327.26195420553495,163.0887113017714 351,175 C 374.73804579446505,186.9112886982286 416.1964084760285,190.87058295941105 445,184 C 473.8035915239715,177.12941704058895 489.95241189035096,159.42895686058438 507,156 C 524.047588109649,152.57104313941562 541.9939439625678,163.41358959825146 564,173 C 586.0060560374322,182.58641040174854 612.071812259378,190.9166847464098 635,178 C 657.928187740622,165.0833152535902 677.7188069999206,130.91967141610937 708,130 C 738.2811930000794,129.08032858389063 779.0529597409394,161.40462958915285 803,167 C 826.9470402590606,172.59537041084715 834.0693540363219,151.46181022727922 853,141 C 871.9306459636781,130.53818977272078 902.669624113773,130.74812950173026 931,140 C 959.330375886227,149.25187049826974 985.2521495085862,167.54567176579974 1008,165 C 1030.7478504914138,162.45432823420026 1050.3217778518815,139.06918343507067 1072,137 C 1093.6782221481185,134.93081656492933 1117.460739083888,154.17759449391755 1142,160 C 1166.539260916112,165.82240550608245 1191.835265812566,158.22043858925923 1221,149 C 1250.164734187434,139.77956141074077 1283.1981976658474,128.9406511490456 1305,135 C 1326.8018023341526,141.0593488509544 1337.3719435240434,164.0169568145584 1358,171 C 1378.6280564759566,177.9830431854416 1409.3140282379782,168.9915215927208 1440,160 C 1440,160 1440,400 1440,400 Z" stroke="none" stroke-width="0" fill="url(#gradient)" fill-opacity="0.4" class="transition-all duration-300 ease-in-out delay-150 path-1"></path><defs><linearGradient id="gradient" x1="50%" y1="0%" x2="50%" y2="100%"><stop offset="5%" stop-color="#ffffff"></stop><stop offset="95%" stop-color="#ffffff"></stop></linearGradient></defs><path d="M 0,400 C 0,400 0,240 0,240 C 19.89337905991568,240.7763874672466 39.78675811983136,241.55277493449321 63,240 C 86.21324188016864,238.44722506550679 112.74634658059023,234.5652877292738 140,235 C 167.25365341940977,235.4347122707262 195.22785555780771,240.1860741484118 219,242 C 242.77214444219229,243.8139258515882 262.3422311881788,242.69041567707916 284,236 C 305.6577688118212,229.30958432292084 329.40321968947705,217.0522631432716 357,220 C 384.59678031052295,222.9477368567284 416.04489005391287,241.1005317498345 443,250 C 469.95510994608713,258.8994682501655 492.4172200948715,258.5456098573905 510,259 C 527.5827799051285,259.4543901426095 540.2862295666014,260.7170288206034 565,264 C 589.7137704333986,267.2829711793966 626.4378616387232,272.5862748601959 651,262 C 675.5621383612768,251.41372513980414 687.9623238785058,224.9378717386132 712,217 C 736.0376761214942,209.0621282613868 771.7128428472533,219.6622381853512 801,225 C 830.2871571527467,230.3377618146488 853.1863047324812,230.41317551998188 875,235 C 896.8136952675188,239.58682448001812 917.5419382228214,248.68505973472136 936,252 C 954.4580617771786,255.31494026527864 970.645942376233,252.84658554113275 997,249 C 1023.354057623767,245.15341445886725 1059.8742922722456,239.92859810074754 1086,245 C 1112.1257077277544,250.07140189925246 1127.856888534785,265.439022055877 1151,260 C 1174.143111465215,254.56097794412298 1204.698153588614,228.31531367574428 1233,217 C 1261.301846411386,205.68468632425572 1287.3504971107577,209.29972324114573 1306,218 C 1324.6495028892423,226.70027675885427 1335.8998579683548,240.48579335967264 1357,245 C 1378.1001420316452,249.51420664032736 1409.0500710158226,244.75710332016368 1440,240 C 1440,240 1440,400 1440,400 Z" stroke="none" stroke-width="0" fill="url(#gradient)" fill-opacity="0.53" class="transition-all duration-300 ease-in-out delay-150 path-2"></path><defs><linearGradient id="gradient" x1="50%" y1="0%" x2="50%" y2="100%"><stop offset="5%" stop-color="#ffffff"></stop><stop offset="95%" stop-color="#ffffff"></stop></linearGradient></defs><path d="M 0,400 C 0,400 0,320 0,320 C 21.10790133810508,312.23409457753763 42.21580267621016,304.46818915507527 71,300 C 99.78419732378984,295.53181084492473 136.2446906332644,294.36133795723663 157,303 C 177.7553093667356,311.63866204276337 182.80543479073216,330.0864590159781 203,327 C 223.19456520926784,323.9135409840219 258.53357020380685,299.292825978851 286,298 C 313.46642979619315,296.707174021149 333.06028439404037,318.74223706861795 357,325 C 380.93971560595963,331.25776293138205 409.22529222003163,321.73822574667724 436,326 C 462.77470777996837,330.26177425332276 488.03854672583316,348.3048599446731 508,348 C 527.9614532741668,347.6951400553269 542.6205208766357,329.0423344746303 567,323 C 591.3794791233643,316.9576655253697 625.4793697676238,323.52580215680564 650,320 C 674.5206302323762,316.47419784319436 689.4620000528695,302.8544568981469 714,301 C 738.5379999471305,299.1455431018531 772.6726300208984,309.0563702506066 798,322 C 823.3273699791016,334.9436297493934 839.847479863537,350.9200620994266 864,343 C 888.152520136463,335.0799379005734 919.9374505249533,303.2633813516868 947,300 C 974.0625494750467,296.7366186483132 996.4027180366497,322.026412493826 1020,331 C 1043.5972819633503,339.973587506174 1068.4516773284477,332.6309686730089 1092,335 C 1115.5483226715523,337.3690313269911 1137.7905726495594,349.4497128141385 1155,349 C 1172.2094273504406,348.5502871858615 1184.3860320733138,335.5701800704371 1211,323 C 1237.6139679266862,310.4298199295629 1278.6652990571847,298.2695669041131 1309,298 C 1339.3347009428153,297.7304330958869 1358.9527716979471,309.3515523131105 1379,315 C 1399.0472283020529,320.6484476868895 1419.5236141510263,320.32422384344477 1440,320 C 1440,320 1440,400 1440,400 Z" stroke="none" stroke-width="0" fill="url(#gradient)" fill-opacity="1" class="transition-all duration-300 ease-in-out delay-150 path-3"></path></svg>