<svg width="100%" height="100%" id="svg" viewBox="0 0 1440 400" xmlns="http://www.w3.org/2000/svg" class="transition duration-300 ease-in-out delay-150"><defs><linearGradient id="gradient" x1="50%" y1="0%" x2="50%" y2="100%"><stop offset="5%" stop-color="#ffffff"></stop><stop offset="95%" stop-color="#ffffff"></stop></linearGradient></defs><path d="M 0,400 C 0,400 0,80 0,80 C 28.84776338001133,75.05379522180954 57.69552676002266,70.10759044361907 78,75 C 98.30447323997734,79.89240955638093 110.06565633992071,94.62343344733326 134,97 C 157.9343436600793,99.37656655266674 194.04184788029448,89.3986757670479 224,86 C 253.95815211970552,82.6013242329521 277.76695213890144,85.78186348447517 299,90 C 320.23304786109856,94.21813651552483 338.8903435640998,99.47387029505141 361,107 C 383.1096564359002,114.52612970494859 408.6716736046995,124.3226553353192 433,109 C 457.3283263953005,93.6773446646808 480.422962017102,53.23550836367184 506,50 C 531.577037982898,46.76449163632816 559.6364783268925,80.73531120999345 586,92 C 612.3635216731075,103.26468879000655 637.0311246753283,91.82324679635437 659,84 C 680.9688753246717,76.17675320364563 700.239022971794,71.97170160458907 724,70 C 747.760977028206,68.02829839541093 776.0127834374952,68.28994678528935 797,70 C 817.9872165625048,71.71005321471065 831.7098432782253,74.86851125425355 854,68 C 876.2901567217747,61.131488745746445 907.1478434496036,44.23600819769643 936,52 C 964.8521565503964,59.76399180230357 991.6987829233608,92.18745595496075 1013,99 C 1034.3012170766392,105.81254404503925 1050.057024856953,87.01416798246055 1075,74 C 1099.942975143047,60.985832017539444 1134.0731176488273,53.755872115197036 1161,55 C 1187.9268823511727,56.244127884802964 1207.6505045477368,65.9623435567513 1229,71 C 1250.3494954522632,76.0376564432487 1273.3248641602247,76.39475365779772 1299,79 C 1324.6751358397753,81.60524634220228 1353.0500388113642,86.45864181205779 1377,87 C 1400.9499611886358,87.54135818794221 1420.474980594318,83.7706790939711 1440,80 C 1440,80 1440,400 1440,400 Z" stroke="none" stroke-width="0" fill="url(#gradient)" fill-opacity="0.265" class="transition-all duration-300 ease-in-out delay-150 path-0" transform="rotate(-180 720 200)"></path><defs><linearGradient id="gradient" x1="50%" y1="0%" x2="50%" y2="100%"><stop offset="5%" stop-color="#ffffff"></stop><stop offset="95%" stop-color="#ffffff"></stop></linearGradient></defs><path d="M 0,400 C 0,400 0,160 0,160 C 21.54315170105513,147.30846581218748 43.08630340211026,134.61693162437496 65,141 C 86.91369659788974,147.38306837562504 109.1979380926141,172.8407393146877 133,179 C 156.8020619073859,185.1592606853123 182.1219442274333,172.02011111687415 207,170 C 231.8780557725667,167.97988888312585 256.31428499765275,177.0788162178157 280,181 C 303.68571500234725,184.9211837821843 326.6209157819558,183.66462401186297 349,173 C 371.3790842180442,162.33537598813703 393.2020518745241,142.2626877347324 423,146 C 452.7979481254759,149.7373122652676 490.57087671994816,177.2846250492074 515,178 C 539.4291232800518,178.7153749507926 550.5144412456833,152.59881206843804 572,145 C 593.4855587543167,137.40118793156196 625.3713582973185,148.3201266770405 653,145 C 680.6286417026815,141.6798733229595 704.0001255650428,124.12068122340006 729,133 C 753.9998744349572,141.87931877659994 780.6281394425107,177.19714842935937 802,176 C 823.3718605574893,174.80285157064063 839.4873166649144,137.0907250591625 861,139 C 882.5126833350856,140.9092749408375 909.4225938978318,182.43995133399068 933,188 C 956.5774061021682,193.56004866600932 976.8223077437583,163.14946960487475 999,151 C 1021.1776922562417,138.85053039512525 1045.288175127135,144.9621702465102 1070,156 C 1094.711824872865,167.0378297534898 1120.0249917477013,183.0018494090843 1145,182 C 1169.9750082522987,180.9981505909157 1194.6118578820594,163.03043211715266 1223,165 C 1251.3881421179406,166.96956788284734 1283.527576724061,188.87642212230506 1307,187 C 1330.472423275939,185.12357787769494 1345.277835221697,159.4638793936271 1366,151 C 1386.722164778303,142.5361206063729 1413.3610823891515,151.26806030318645 1440,160 C 1440,160 1440,400 1440,400 Z" stroke="none" stroke-width="0" fill="url(#gradient)" fill-opacity="0.4" class="transition-all duration-300 ease-in-out delay-150 path-1" transform="rotate(-180 720 200)"></path><defs><linearGradient id="gradient" x1="50%" y1="0%" x2="50%" y2="100%"><stop offset="5%" stop-color="#ffffff"></stop><stop offset="95%" stop-color="#ffffff"></stop></linearGradient></defs><path d="M 0,400 C 0,400 0,240 0,240 C 25.31708566951847,240.45925328284815 50.63417133903694,240.9185065656963 71,244 C 91.36582866096306,247.0814934343037 106.7804003133707,252.785227020063 132,247 C 157.2195996866293,241.214772979937 192.2442274074801,223.94058535405182 218,217 C 243.7557725925199,210.05941464594818 260.24269005670885,213.4524315637297 283,220 C 305.75730994329115,226.5475684362703 334.78501236568457,236.24968839102934 361,235 C 387.21498763431543,233.75031160897066 410.61726048055294,221.54881487215286 435,221 C 459.38273951944706,220.45118512784714 484.74594571210366,231.55505212035928 505,241 C 525.2540542878963,250.44494787964072 540.3989566710324,258.2309766464101 562,252 C 583.6010433289676,245.7690233535899 611.6582276037665,225.52104129400033 638,221 C 664.3417723962335,216.47895870599967 688.968132913902,227.68485817758864 715,235 C 741.031867086098,242.31514182241136 768.4692407406255,245.73952599564524 790,243 C 811.5307592593745,240.26047400435476 827.154904123596,231.3570378398306 851,221 C 874.845095876404,210.6429621601694 906.9111427649908,198.83232264503235 931,212 C 955.0888572350092,225.16767735496765 971.2005248164412,263.3136715800399 998,261 C 1024.7994751835588,258.6863284199601 1062.2867579692438,215.912991034808 1086,214 C 1109.7132420307562,212.087008965192 1119.6524433065838,251.0343642807282 1143,266 C 1166.3475566934162,280.9656357192718 1203.1034688044208,271.94955184227905 1229,259 C 1254.8965311955792,246.05044815772095 1269.9336814757328,229.16742835015563 1291,222 C 1312.0663185242672,214.83257164984437 1339.1618052926478,217.3807347570984 1365,222 C 1390.8381947073522,226.6192652429016 1415.419097353676,233.30963262145082 1440,240 C 1440,240 1440,400 1440,400 Z" stroke="none" stroke-width="0" fill="url(#gradient)" fill-opacity="0.53" class="transition-all duration-300 ease-in-out delay-150 path-2" transform="rotate(-180 720 200)"></path><defs><linearGradient id="gradient" x1="50%" y1="0%" x2="50%" y2="100%"><stop offset="5%" stop-color="#ffffff"></stop><stop offset="95%" stop-color="#ffffff"></stop></linearGradient></defs><path d="M 0,400 C 0,400 0,320 0,320 C 29.399816429906025,307.723267066012 58.79963285981205,295.44653413202394 83,290 C 107.20036714018795,284.55346586797606 126.20128499065783,285.93713053791606 151,293 C 175.79871500934217,300.06286946208394 206.3952271775567,312.8049437163117 228,325 C 249.6047728224433,337.1950562836883 262.2178062991154,348.843094596837 285,347 C 307.7821937008846,345.156905403163 340.7335476259819,329.82267789634045 364,321 C 387.2664523740181,312.17732210365955 400.84800319695705,309.8661938178013 423,319 C 445.15199680304295,328.1338061821987 475.87443958618985,348.7125468324547 503,344 C 530.1255604138101,339.2874531675453 553.6542384582834,309.28361885238013 580,298 C 606.3457615417166,286.71638114761987 635.5086065806762,294.152977758025 656,298 C 676.4913934193238,301.847022241975 688.3113352190119,302.10447011551986 707,301 C 725.6886647809881,299.89552988448014 751.2460525432764,297.42914177989564 781,309 C 810.7539474567236,320.57085822010436 844.7044546078829,346.1789627648977 868,342 C 891.2955453921171,337.8210372351023 903.9361290251929,303.85500716051365 929,299 C 954.0638709748071,294.14499283948635 991.5510292913455,318.4010085930476 1017,325 C 1042.4489707086545,331.5989914069524 1055.859753809425,320.5409584672959 1077,321 C 1098.140246190575,321.4590415327041 1127.009955470955,333.43515753776876 1156,338 C 1184.990044529045,342.56484246223124 1214.1004243067543,339.718411381629 1236,339 C 1257.8995756932457,338.281588618371 1272.5883473020276,339.6911969357153 1291,335 C 1309.4116526979724,330.3088030642847 1331.546186485135,319.5168008755099 1357,316 C 1382.453813514865,312.4831991244901 1411.2269067574325,316.241599562245 1440,320 C 1440,320 1440,400 1440,400 Z" stroke="none" stroke-width="0" fill="url(#gradient)" fill-opacity="1" class="transition-all duration-300 ease-in-out delay-150 path-3" transform="rotate(-180 720 200)"></path></svg>